<?xml version="1.0" encoding="UTF-8" standalone="no"?>
<!-- Created with Inkscape (http://www.inkscape.org/) -->

<svg
   xmlns:dc="http://purl.org/dc/elements/1.1/"
   xmlns:cc="http://creativecommons.org/ns#"
   xmlns:rdf="http://www.w3.org/1999/02/22-rdf-syntax-ns#"
   xmlns:svg="http://www.w3.org/2000/svg"
   xmlns="http://www.w3.org/2000/svg"
   xmlns:sodipodi="http://sodipodi.sourceforge.net/DTD/sodipodi-0.dtd"
   xmlns:inkscape="http://www.inkscape.org/namespaces/inkscape"
   width="16px"
   height="16px"
   id="svg2985"
   version="1.1"
   inkscape:version="0.48.3.1 r9886"
   sodipodi:docname="Nouveau document 2">
  <defs
     id="defs2987" />
  <sodipodi:namedview
     id="base"
     pagecolor="#ffffff"
     bordercolor="#666666"
     borderopacity="1.0"
     inkscape:pageopacity="0.0"
     inkscape:pageshadow="2"
     inkscape:zoom="5.5494505"
     inkscape:cx="56.266832"
     inkscape:cy="-10.71165"
     inkscape:current-layer="layer1"
     showgrid="true"
     inkscape:grid-bbox="true"
     inkscape:document-units="px"
     showguides="true"
     inkscape:guide-bbox="true"
     inkscape:window-width="1600"
     inkscape:window-height="876"
     inkscape:window-x="0"
     inkscape:window-y="24"
     inkscape:window-maximized="1">
    <sodipodi:guide
       orientation="0,1"
       position="9.3139852,8.3623144"
       id="guide3112" />
  </sodipodi:namedview>
  <metadata
     id="metadata2990">
    <rdf:RDF>
      <cc:Work
         rdf:about="">
        <dc:format>image/svg+xml</dc:format>
        <dc:type
           rdf:resource="http://purl.org/dc/dcmitype/StillImage" />
        <dc:title></dc:title>
      </cc:Work>
    </rdf:RDF>
  </metadata>
  <g
     id="layer1"
     inkscape:label="Layer 1"
     inkscape:groupmode="layer">
    <path
       style="fill:#003366;stroke:none;stroke-width:1px;stroke-linecap:butt;stroke-linejoin:miter;stroke-opacity:1"
       d="m 10,0.5 -7.5,0 c 0,0 -2,-0.0123761 -2,2 0,2.0123761 0,11 0,11 0,0 -0.004951,2 2,2 2.0049505,0 11,0 11,0 0,0 2,0.005 2,-2 0,-2.004951 0,-7.5 0,-7.5 l -2,2 0,4.5 c 0,0 0.01238,1 -1,1 -1.012376,0 -9,0 -9,0 0,0 -1,0.005 -1,-1 0,-1.004951 0,-9 0,-9 0,0 -0.00495,-1 1,-1 1.0049505,0 4.5,0 4.5,0 l 2,-2 z"
       id="path3072"
       inkscape:connector-curvature="0" />
    <path
       style="fill:#aaccee;stroke:none"
       d="M 4.6903477,5.3135636 3.2284621,7.0266655 8.067166,10.833741 15.518367,1.7727788 14.016178,0.5043914 8.5341073,6.9285236 c 0,0 -0.6965757,0.8839508 -1.7471262,0.069422 C 6.1315108,6.4897351 4.6903477,5.3135636 4.6903477,5.3135636 z"
       id="path3074-9"
       inkscape:connector-curvature="0"
       sodipodi:nodetypes="ccccccsc" />
  </g>
</svg>
